<?xml version="1.0" encoding="utf-8"?>
<!-- Generator: Adobe Illustrator 25.2.1, SVG Export Plug-In . SVG Version: 6.00 Build 0)  -->
<svg version="1.1" id="Layer_1" xmlns="http://www.w3.org/2000/svg" xmlns:xlink="http://www.w3.org/1999/xlink" x="0px" y="0px"
	 viewBox="0 0 1366 768" style="enable-background:new 0 0 1366 768;" xml:space="preserve">
<style type="text/css">
	.st0{fill:#FFFFFF;stroke:#000000;stroke-miterlimit:10;}
</style>
<ellipse class="st0" cx="737.5" cy="249.5" rx="17" ry="14"/>
<g>
	<g>
		<path d="M721.52,240.58c-9.55-0.93-19.12-1.63-28.7-2.1c-6.42-0.31-15.63-0.91-18.41,6.48c-1.25,3.33-0.25,7.17,1.54,10.11
			c2.04,3.34,5.27,5.62,8.48,7.74c3.17,2.1,6.2,4.2,8.68,7.13c2.28,2.7,4.06,5.79,5.74,8.88c3.37,6.2,6.43,12.84,11.73,17.67
			c5.75,5.24,13.42,7.71,21.07,8.33c9.1,0.73,18.18-1.25,27.02-3.18c6.67-1.46,14.16-3.29,18.57-8.96
			c4.56-5.87,3.84-13.94,0.4-20.18c-3.75-6.8-10.66-11.05-17.47-14.3c-1.79-0.86-3.61-1.66-5.42-2.46
			c-1.75-0.77-3.28,1.81-1.51,2.59c6.61,2.92,13.52,5.95,18.58,11.27c4.41,4.64,7.17,11.85,4.83,18.13
			c-2.37,6.36-9.47,8.78-15.48,10.26c-7.98,1.96-16.25,3.79-24.5,3.96c-7.28,0.15-14.78-1.21-20.95-5.25
			c-5.67-3.72-9.07-9.62-12.18-15.47c-3.05-5.73-6.05-11.74-10.94-16.16c-5.08-4.6-13.23-7.22-15.35-14.37
			c-0.88-2.99-0.18-6.16,2.62-7.83c2.63-1.57,5.95-1.63,8.92-1.56c8.69,0.21,17.4,0.91,26.05,1.66c2.22,0.19,4.45,0.4,6.67,0.61
			C723.44,243.77,723.43,240.77,721.52,240.58L721.52,240.58z"/>
	</g>
</g>
<g>
	<g>
		<path d="M719.17,301.29c-1.63,8.26-3.21,17.38,1.21,25.09c4.25,7.43,13.28,9.49,20.78,12.14c4.48,1.59,8.97,3.18,13.45,4.76
			c4.13,1.45,8.59,2.69,12.72,0.56c3.74-1.93,5.85-5.76,7.35-9.52c1.67-4.2,2.95-8.57,3.91-12.99c1.09-5.03,1.74-10.18,1.94-15.32
			c0.16-4.27,0.17-9.57-4.13-11.9c-1.7-0.92-3.21,1.67-1.51,2.59c3.34,1.81,2.77,6.6,2.63,9.78c-0.18,4.1-0.65,8.18-1.43,12.21
			c-0.78,4-1.83,7.96-3.17,11.81c-1.2,3.47-2.54,7.23-5.44,9.66c-3.26,2.74-7.26,1.87-10.96,0.62c-4.02-1.37-8-2.83-12-4.24
			c-3.82-1.35-7.67-2.63-11.45-4.09c-3.26-1.25-6.5-2.87-8.75-5.62c-5.67-6.91-3.81-16.75-2.24-24.75
			C722.43,300.2,719.54,299.39,719.17,301.29L719.17,301.29z"/>
	</g>
</g>
<g>
	<g>
		<path d="M721.26,326.21c-6.73,4.51-12.53,10.3-16.98,17.07c-2.15,3.27-4.18,7.32-2.41,11.22c0.76,1.68,2.11,2.99,3.5,4.16
			c1.76,1.48,3.56,2.92,5.34,4.38c3.67,3.01,7.35,6.03,11.02,9.04c3.13,2.57,6.26,5.7,10.06,7.25c3.92,1.6,7.63,0.37,10.85-2.11
			c3.5-2.7,6.72-5.84,9.89-8.92c6.09-5.92,15.26-14.12,11.71-23.68c-0.67-1.79-3.57-1.02-2.89,0.8c2.79,7.53-4.15,14-8.93,18.78
			c-2.83,2.83-5.74,5.57-8.73,8.22c-2.51,2.22-5.55,5.28-9.23,4.61c-3.52-0.64-6.43-3.64-9.08-5.82c-3.23-2.65-6.46-5.3-9.69-7.95
			c-3.1-2.55-6.43-4.96-9.33-7.73c-1.19-1.14-2.16-2.46-2.17-4.17c-0.01-1.91,0.93-3.71,1.9-5.3c4.17-6.88,10.04-12.79,16.71-17.25
			C724.37,327.73,722.87,325.13,721.26,326.21L721.26,326.21z"/>
	</g>
</g>
<g>
	<g>
		<path d="M701.64,352.78c-9.03,3.47-18.01,7.23-27.23,10.17c-4.46,1.43-9.04,2.63-13.69,3.19c-4.82,0.59-9.64,0.4-14.44-0.26
			c-5.36-0.73-10.65-1.85-16.03-2.42c-1.92-0.2-1.9,2.8,0,3c9.64,1.02,19.08,3.73,28.85,2.84c9.52-0.86,18.55-4.13,27.41-7.53
			c5.31-2.03,10.62-4.08,15.93-6.12C704.22,354.99,703.45,352.09,701.64,352.78L701.64,352.78z"/>
	</g>
</g>
<g>
	<g>
		<path d="M723.7,374.93c-3.66,5.7-10.21,8.32-16.58,9.66c-6.79,1.42-13.82,1.94-20.75,1.9c-13.97-0.08-27.89-2.84-40.83-8.1
			c-5.77-2.35-13.11-5.45-15.07-11.98c-0.55-1.84-3.45-1.06-2.89,0.8c1.82,6.06,7.37,9.69,12.83,12.21
			c6.73,3.1,13.82,5.48,21.04,7.15c14.64,3.38,30.07,3.93,44.87,1.23c7.72-1.41,15.56-4.48,19.97-11.35
			C727.34,374.81,724.74,373.31,723.7,374.93L723.7,374.93z"/>
	</g>
</g>
<g>
	<g>
		<path d="M630.44,366.24c5.59-9.03,8.04-20.89,2.01-30.35c-2.53-3.97-6.43-7.25-11.07-8.4c-2.55-0.64-5.38-0.59-7.68,0.81
			c-2.13,1.3-3.54,3.48-4.52,5.72c-2.27,5.2-2.9,10.99-1.86,16.56c0.24,1.31,0.67,2.55,0.98,3.84c0.37,1.53,0.03,2.43-1.41,3.1
			c-2.57,1.19-5.29,1.97-7.82,3.27c-2.46,1.26-4.82,2.74-7.01,4.43c-2.04,1.58-3.94,3.59-4.44,6.22c-0.48,2.5,0.44,4.93,2.35,6.6
			c2.08,1.81,4.73,2.42,7.41,2.7c5.94,0.61,12.42,0.65,18.08-1.5c6-2.27,9.87-7.01,13.6-12.01c1.16-1.55-1.45-3.05-2.59-1.51
			c-2.92,3.91-5.97,7.87-10.46,10.05c-4.29,2.08-9.23,2.39-13.92,2.26c-2.5-0.07-5.16-0.1-7.56-0.84c-1.95-0.61-4.04-2.11-4.06-4.35
			c-0.02-2.37,1.99-4.19,3.73-5.49c2-1.5,4.16-2.81,6.38-3.95c2.2-1.13,4.49-1.94,6.79-2.83c2.01-0.79,3.82-2.04,4.07-4.36
			c0.27-2.48-1.07-5.04-1.41-7.49c-0.34-2.45-0.31-5.01,0.1-7.45c0.67-3.98,2.37-10.39,7.15-11.09c4.2-0.62,8.46,2.21,11.08,5.24
			c7.34,8.48,4.91,20.58-0.51,29.34C626.83,366.37,629.42,367.88,630.44,366.24L630.44,366.24z"/>
	</g>
</g>
<g>
	<g>
		<path d="M616.79,332.22c-2.09,4.8-4.21,9.7-4.39,15.01c-0.16,4.61,1.36,9.48,5.01,12.5c1.68,1.39,3.82,2.51,6.05,2.46
			c2.45-0.06,4.3-1.71,5.18-3.92c0.92-2.3,1.01-5.06,0.93-7.51c-0.08-2.45-0.47-4.9-1.16-7.25c-1.36-4.62-4.21-11.12-9.62-11.88
			c-0.81-0.11-1.6,0.2-1.85,1.05c-0.2,0.7,0.25,1.73,1.05,1.85c3.81,0.53,5.81,4.91,6.98,8.13c1.35,3.7,1.87,7.65,1.49,11.58
			c-0.16,1.68-0.48,4.28-2.41,4.85c-1.66,0.5-3.6-0.66-4.81-1.72c-2.84-2.48-3.94-6.24-3.85-9.91c0.11-4.83,2.09-9.37,3.99-13.73
			C620.14,331.99,617.56,330.46,616.79,332.22L616.79,332.22z"/>
	</g>
</g>
<g>
	<g>
		<path d="M621.07,364.07c-3.74-1.95-7.95-2.67-12.12-2.05c-4.48,0.67-8.15,3.15-11.87,5.57c-1.46,0.95-3.73,1.91-3.67,3.98
			c0.06,2.07,2.03,3.03,3.79,3.41c4.57,0.97,9.24,0.07,13.64-1.23c4.12-1.22,9.97-2.48,10.97-7.45c0.38-1.89-2.51-2.69-2.89-0.8
			c-0.42,2.11-2.28,3.18-4.16,3.86c-1.98,0.72-4.02,1.33-6.05,1.88c-2.27,0.62-4.58,1.1-6.94,1.15c-1.1,0.03-2.22-0.02-3.31-0.21
			c-0.42-0.07-0.87-0.15-1.27-0.29c-0.26-0.09-0.76-0.46-0.78-0.27c0.04-0.33,2.28-1.49,2.59-1.69c0.9-0.58,1.79-1.17,2.69-1.74
			c1.89-1.19,3.84-2.28,6.02-2.86c3.96-1.05,8.23-0.56,11.86,1.33C621.26,367.55,622.78,364.97,621.07,364.07L621.07,364.07z"/>
	</g>
</g>
<g>
	<g>
		<path d="M695.88,272.08c-9.02-0.51-18.16-0.99-27.08,0.81c-3.84,0.77-7.59,1.99-11.11,3.71c-3.33,1.63-6.94,3.84-9.34,6.72
			c-1.07,1.29-1.81,3.12-0.79,4.67c1.04,1.58,3,1.5,4.66,1.32c4.5-0.48,8.98-1.21,13.39-2.2c2.18-0.49,4.35-1.05,6.5-1.66
			c1.05-0.3,2.28-0.5,3.27-0.94c-0.1,0.04,1.33-0.05,0.29-0.46c-0.07-0.03-0.29,0.19-0.39,0.19c-0.41,0.01-0.92,0.24-1.32,0.33
			c-3.74,0.86-7.38,2.31-10.7,4.23c-3.27,1.9-6.49,4.3-8.97,7.17c-1.17,1.34-2.04,3.02-1.47,4.82c0.51,1.6,2.02,2.77,3.62,3.15
			c1.97,0.47,3.93-0.2,5.73-0.98c2.08-0.9,4.15-1.82,6.26-2.65c4.11-1.63,8.29-3.07,12.52-4.33c4.2-1.24,8.53-2.5,12.86-3.19
			c0,0,0.49-0.05,0.5-0.07c-0.11-0.12-0.22-0.24-0.33-0.35c-0.18-0.43-0.38-0.47-0.59-0.11c-0.38,0.15-0.8,0.69-1.11,0.95
			c-0.92,0.79-1.84,1.59-2.77,2.38c-1.78,1.53-3.57,3.07-5.35,4.6c-3.12,2.68-5.62,6.06-7.86,9.51c-2.01,3.09-4.92,7.21-3.11,11.02
			c0.7,1.48,2.08,2.65,3.76,2.79c2.1,0.17,3.84-1.18,5.1-2.72c2.39-2.94,4.81-5.75,7.67-8.26c5.63-4.92,12.33-8.65,19.48-10.84
			c1.76-0.54,3.54-0.98,5.34-1.34c1.89-0.38,1.09-3.27-0.8-2.89c-7.01,1.4-13.75,4.16-19.73,8.08c-2.96,1.94-5.75,4.15-8.3,6.6
			c-1.28,1.23-2.49,2.52-3.64,3.86c-1.13,1.33-2.16,3.24-3.68,4.16c-1.71,1.03-2.91-0.65-2.77-2.29c0.16-1.96,1.5-3.82,2.5-5.44
			c2.06-3.35,4.42-6.9,7.42-9.48c3.31-2.84,6.8-5.57,9.96-8.57c1.16-1.1,1.93-3.05,0.32-4.19c-1.47-1.03-3.76-0.12-5.33,0.23
			c-8.18,1.79-16.2,4.28-23.96,7.43c-2,0.81-3.96,1.73-5.96,2.55c-1.33,0.55-3.77,1.38-4.76-0.23c-0.83-1.36,1.57-3.16,2.42-3.95
			c1.34-1.26,2.77-2.4,4.29-3.43c3.03-2.05,6.35-3.66,9.87-4.71c1.55-0.46,3.39-0.59,4.78-1.45c1.42-0.87,1.92-2.74,0.79-4.06
			c-1.34-1.56-3.35-1.01-5.05-0.5c-2.06,0.63-4.14,1.2-6.24,1.7c-4.21,1.02-8.49,1.82-12.79,2.34c-0.95,0.12-1.91,0.27-2.87,0.3
			c-0.82,0.03-1.18-0.01-0.64-0.83c0.94-1.44,2.68-2.63,4.06-3.61c3.04-2.14,6.42-3.74,9.95-4.87c8.05-2.58,16.57-2.72,24.93-2.38
			c2.19,0.09,4.37,0.21,6.56,0.33C697.81,275.19,697.8,272.19,695.88,272.08L695.88,272.08z"/>
	</g>
</g>
</svg>
